<svg xmlns="http://www.w3.org/2000/svg" viewBox="0 0 400 400" width="400" height="400">
<defs><linearGradient id="u1-1" x1="0" y1="0" x2="0" y2="1"><stop offset="0" stop-color="#ffffff"/><stop offset="0.5" stop-color="#dfe6ee"/><stop offset="1" stop-color="#97a6b8"/></linearGradient><linearGradient id="u1-2" x1="0" y1="0" x2="0" y2="1"><stop offset="0" stop-color="#ff7f5f"/><stop offset="1" stop-color="#c4291a"/></linearGradient><radialGradient id="u1-3" cx="0.34" cy="0.3" r="0.85"><stop offset="0" stop-color="#ff9c82"/><stop offset="0.5" stop-color="#f2391f"/><stop offset="1" stop-color="#a9140b"/></radialGradient></defs>
<ellipse cx="205" cy="372" rx="165" ry="24.75" fill="#2b1633" opacity="0.13"/>
<line x1="222" y1="266" x2="240" y2="259" stroke="#2b1633" stroke-width="3.4" stroke-linecap="round" opacity="0.7"/>
<line x1="252" y1="250" x2="270" y2="243" stroke="#2b1633" stroke-width="3.4" stroke-linecap="round" opacity="0.7"/>
<line x1="280" y1="234" x2="298" y2="227" stroke="#2b1633" stroke-width="3.4" stroke-linecap="round" opacity="0.7"/>
<line x1="308" y1="219" x2="326" y2="212" stroke="#2b1633" stroke-width="3.4" stroke-linecap="round" opacity="0.7"/>
<line x1="333" y1="204" x2="351" y2="197" stroke="#2b1633" stroke-width="3.4" stroke-linecap="round" opacity="0.7"/>
<g transform="translate(178 306) rotate(-6)"><ellipse cx="0" cy="0" rx="60" ry="54" fill="url(#u1-3)" stroke="#2b1633" stroke-width="5" stroke-linejoin="round" stroke-linecap="round"/><path d="M0,-58.2 L5.29,-48.04 L26.25,-48.66 L8.56,-43.01 L16.22,-33.24 L0,-39.9 L-16.22,-33.24 L-8.56,-43.01 L-26.25,-48.66 L-5.29,-48.04 Z" fill="#4cb944" stroke="#2b1633" stroke-width="4.5" stroke-linejoin="round" stroke-linecap="round"/><path d="M0,-45.6 Q2.4,-55.2 8.4,-60" fill="none" stroke="#2d7a32" stroke-width="4.75" stroke-linejoin="round" stroke-linecap="round"/><ellipse cx="-24" cy="-18" rx="15.6" ry="7.8" transform="rotate(-35 -24 -18)" fill="#fff" opacity="0.75"/><ellipse cx="27" cy="20.4" rx="6" ry="3.6" transform="rotate(-35 27 20.4)" fill="#fff" opacity="0.35"/></g>
<path d="M214,236 L218.1,250.72 L230.71,242.08 L224.39,256 L239.61,257.49 L225.82,264.08 L236.52,275 L221.71,271.19 L222.89,286.43 L214,274 L205.11,286.43 L206.29,271.19 L191.48,275 L202.18,264.08 L188.39,257.49 L203.61,256 L197.29,242.08 L209.9,250.72 Z" fill="#ffe14d" stroke="#2b1633" stroke-width="3.5" stroke-linejoin="round" stroke-linecap="round"/>
<g transform="translate(232 246) rotate(40) scale(0.9)"><path d="M0,-13 Q8,-1 7,6 A7,7 0 1 1 -7,6 Q-8,-1 0,-13 Z" fill="#ff3b2f" stroke="#2b1633" stroke-width="3.333333333333333" stroke-linejoin="round" stroke-linecap="round"/><path d="M-3,2 Q-2,-3 0,-6 Q-0.5,-1 -3,2 Z" fill="#fff" opacity="0.75"/></g>
<g transform="translate(196 246) rotate(-30) scale(0.75)"><path d="M0,-13 Q8,-1 7,6 A7,7 0 1 1 -7,6 Q-8,-1 0,-13 Z" fill="#ff3b2f" stroke="#2b1633" stroke-width="4" stroke-linejoin="round" stroke-linecap="round"/><path d="M-3,2 Q-2,-3 0,-6 Q-0.5,-1 -3,2 Z" fill="#fff" opacity="0.75"/></g>
<g transform="translate(30 66) rotate(44)"><path d="M150,-48 Q230,-62 300,-46" fill="none" stroke="#2b1633" stroke-width="4" stroke-linejoin="round" stroke-linecap="round" opacity="0.55"/><path d="M170,-62 Q236,-74 290,-62" fill="none" stroke="#2b1633" stroke-width="3.5" stroke-linejoin="round" stroke-linecap="round" opacity="0.4"/><path d="M0,-21 L92,-23 Q103,-23 105,-12 L105,12 Q103,23 92,23 L0,21 Q-15,19 -15,0 Q-15,-19 0,-21 Z" fill="url(#u1-2)" stroke="#2b1633" stroke-width="5" stroke-linejoin="round" stroke-linecap="round"/><path d="M2,-15 L88,-16 Q95,-15 95,-10 L4,-9 Z" fill="#fff" opacity="0.45"/><circle cx="22" cy="1" r="6" fill="#eef2f7" stroke="#2b1633" stroke-width="3" stroke-linejoin="round" stroke-linecap="round"/><circle cx="50" cy="1" r="6" fill="#eef2f7" stroke="#2b1633" stroke-width="3" stroke-linejoin="round" stroke-linecap="round"/><circle cx="78" cy="1" r="6" fill="#eef2f7" stroke="#2b1633" stroke-width="3" stroke-linejoin="round" stroke-linecap="round"/><rect x="103" y="-27" width="18" height="54" rx="6" fill="url(#u1-1)" stroke="#2b1633" stroke-width="4.5" stroke-linejoin="round" stroke-linecap="round"/><path d="M120,-29 L292,-29 Q324,-27 338,-9 Q302,27 206,41 L120,41 Z" fill="url(#u1-1)" stroke="#2b1633" stroke-width="5" stroke-linejoin="round" stroke-linecap="round"/><path d="M128,34 L206,34 Q290,23 326,-7" fill="none" stroke="#ffffff" stroke-width="3.5" stroke-linejoin="round" stroke-linecap="round"/><path d="M124,-21 L292,-21" fill="none" stroke="#8a98aa" stroke-width="3" stroke-linejoin="round" stroke-linecap="round"/><path d="M146,-17 L236,-17 Q242,-11 236,-6 L146,-6 Z" fill="#fff" opacity="0.6"/><g transform="translate(182 8) scale(0.95)"><ellipse cx="-13" cy="0" rx="8.5" ry="10.5" fill="#fff" stroke="#2b1633" stroke-width="3.2" stroke-linejoin="round" stroke-linecap="round"/><circle cx="-10" cy="4" r="4.6" fill="#2b1633"/><circle cx="-11.61" cy="2.16" r="1.66" fill="#fff"/><ellipse cx="13" cy="0" rx="8.5" ry="10.5" fill="#fff" stroke="#2b1633" stroke-width="3.2" stroke-linejoin="round" stroke-linecap="round"/><circle cx="16" cy="4" r="4.6" fill="#2b1633"/><circle cx="14.39" cy="2.16" r="1.66" fill="#fff"/><path d="M-23,-17 L-5,-10" fill="none" stroke="#2b1633" stroke-width="4.2" stroke-linejoin="round" stroke-linecap="round"/><path d="M23,-17 L5,-10" fill="none" stroke="#2b1633" stroke-width="4.2" stroke-linejoin="round" stroke-linecap="round"/><path d="M-11,12 Q0,25 11,12 Z" fill="#2b1633" stroke="#2b1633" stroke-width="3" stroke-linejoin="round" stroke-linecap="round"/><path d="M-9,13 L9,13 L8,16.5 L-8,16.5 Z" fill="#fff"/></g></g>
<g transform="translate(262 252) rotate(-25) scale(1.2)"><path d="M-17,-12 Q-2,-23 15,-14 Q22,-2 14,12 Q-2,21 -16,11 Q-23,0 -17,-12 Z" fill="#e8321f" stroke="#2b1633" stroke-width="3" stroke-linejoin="round" stroke-linecap="round"/><path d="M-11,-7 Q-1,-14 9,-8 Q14,0 8,8 Q-2,13 -10,6 Q-15,0 -11,-7 Z" fill="#ff8f78"/><ellipse cx="-4" cy="-2" rx="2.8" ry="1.7" transform="rotate(30 -4 -2)" fill="#ffe49a"/><ellipse cx="3.5" cy="3" rx="2.8" ry="1.7" transform="rotate(-20 3.5 3)" fill="#ffe49a"/><ellipse cx="-3" cy="5" rx="2.4" ry="1.5" fill="#ffe49a"/><path d="M-14,-9 Q-6,-17 6,-15 Q-4,-12 -14,-9 Z" fill="#fff" opacity="0.7"/></g>
<g transform="translate(292 236) rotate(25) scale(1.14)"><path d="M-17,-12 Q-2,-23 15,-14 Q22,-2 14,12 Q-2,21 -16,11 Q-23,0 -17,-12 Z" fill="#e8321f" stroke="#2b1633" stroke-width="3.1578947368421058" stroke-linejoin="round" stroke-linecap="round"/><path d="M-11,-7 Q-1,-14 9,-8 Q14,0 8,8 Q-2,13 -10,6 Q-15,0 -11,-7 Z" fill="#ff8f78"/><ellipse cx="-4" cy="-2" rx="2.8" ry="1.7" transform="rotate(30 -4 -2)" fill="#ffe49a"/><ellipse cx="3.5" cy="3" rx="2.8" ry="1.7" transform="rotate(-20 3.5 3)" fill="#ffe49a"/><ellipse cx="-3" cy="5" rx="2.4" ry="1.5" fill="#ffe49a"/><path d="M-14,-9 Q-6,-17 6,-15 Q-4,-12 -14,-9 Z" fill="#fff" opacity="0.7"/></g>
<g transform="translate(320 220) rotate(-45) scale(1.1)"><path d="M-17,-12 Q-2,-23 15,-14 Q22,-2 14,12 Q-2,21 -16,11 Q-23,0 -17,-12 Z" fill="#e8321f" stroke="#2b1633" stroke-width="3.260869565217391" stroke-linejoin="round" stroke-linecap="round"/><path d="M-11,-7 Q-1,-14 9,-8 Q14,0 8,8 Q-2,13 -10,6 Q-15,0 -11,-7 Z" fill="#ff8f78"/><ellipse cx="-4" cy="-2" rx="2.8" ry="1.7" transform="rotate(30 -4 -2)" fill="#ffe49a"/><ellipse cx="3.5" cy="3" rx="2.8" ry="1.7" transform="rotate(-20 3.5 3)" fill="#ffe49a"/><ellipse cx="-3" cy="5" rx="2.4" ry="1.5" fill="#ffe49a"/><path d="M-14,-9 Q-6,-17 6,-15 Q-4,-12 -14,-9 Z" fill="#fff" opacity="0.7"/></g>
<g transform="translate(348 205) rotate(15) scale(1.06)"><path d="M-17,-12 Q-2,-23 15,-14 Q22,-2 14,12 Q-2,21 -16,11 Q-23,0 -17,-12 Z" fill="#e8321f" stroke="#2b1633" stroke-width="3.409090909090909" stroke-linejoin="round" stroke-linecap="round"/><path d="M-11,-7 Q-1,-14 9,-8 Q14,0 8,8 Q-2,13 -10,6 Q-15,0 -11,-7 Z" fill="#ff8f78"/><ellipse cx="-4" cy="-2" rx="2.8" ry="1.7" transform="rotate(30 -4 -2)" fill="#ffe49a"/><ellipse cx="3.5" cy="3" rx="2.8" ry="1.7" transform="rotate(-20 3.5 3)" fill="#ffe49a"/><ellipse cx="-3" cy="5" rx="2.4" ry="1.5" fill="#ffe49a"/><path d="M-14,-9 Q-6,-17 6,-15 Q-4,-12 -14,-9 Z" fill="#fff" opacity="0.7"/></g>
<g transform="translate(373 190) rotate(-20) scale(0.96)"><path d="M-17,-12 Q-2,-23 15,-14 Q22,-2 14,12 Q-2,21 -16,11 Q-23,0 -17,-12 Z" fill="#e8321f" stroke="#2b1633" stroke-width="3.7500000000000004" stroke-linejoin="round" stroke-linecap="round"/><path d="M-11,-7 Q-1,-14 9,-8 Q14,0 8,8 Q-2,13 -10,6 Q-15,0 -11,-7 Z" fill="#ff8f78"/><ellipse cx="-4" cy="-2" rx="2.8" ry="1.7" transform="rotate(30 -4 -2)" fill="#ffe49a"/><ellipse cx="3.5" cy="3" rx="2.8" ry="1.7" transform="rotate(-20 3.5 3)" fill="#ffe49a"/><ellipse cx="-3" cy="5" rx="2.4" ry="1.5" fill="#ffe49a"/><path d="M-14,-9 Q-6,-17 6,-15 Q-4,-12 -14,-9 Z" fill="#fff" opacity="0.7"/></g>
<path d="M352,151 Q353.44,158.56 361,160 Q353.44,161.44 352,169 Q350.56,161.44 343,160 Q350.56,158.56 352,151 Z" fill="#fff6b0" stroke="#2b1633" stroke-width="3" stroke-linejoin="round" stroke-linecap="round"/>
<path d="M300,190 Q300.96,195.04 306,196 Q300.96,196.96 300,202 Q299.04,196.96 294,196 Q299.04,195.04 300,190 Z" fill="#fff6b0" stroke="#2b1633" stroke-width="3" stroke-linejoin="round" stroke-linecap="round"/>
</svg>
